<?xml version="1.0" standalone="no"?><!DOCTYPE svg PUBLIC "-//W3C//DTD SVG 1.1//EN" "http://www.w3.org/Graphics/SVG/1.1/DTD/svg11.dtd"><svg t="1735135912270" class="icon" viewBox="0 0 1024 1024" version="1.1" xmlns="http://www.w3.org/2000/svg" p-id="4371" xmlns:xlink="http://www.w3.org/1999/xlink" width="20" height="20"><path d="M512 512m-512 0a512 512 0 1 0 1024 0 512 512 0 1 0-1024 0Z" fill="#1BC5BE" p-id="4372"></path><path d="M430.665842 6.509623C224.649412 39.373222 59.62217 195.122506 13.107148 396.253708c52.227499 73.383171 137.980879 121.246839 234.912363 121.246839 159.135347 0 288.139305-129.002754 288.139305-288.135693 0-89.807746-41.091541-170.012413-105.492974-222.855231z" fill="#FFFFFF" opacity=".5" p-id="4373"></path><path d="M773.731141 251.076842c-0.367265-4.892452-2.344476-7.814919-8.147263-8.661435-44.581161-6.518052-88.433813-4.053161-131.725332 8.822791-27.046362 8.048523-50.211756 21.513303-68.448574 43.57931-19.294059 23.352037-32.70706 49.860145-44.496871 77.407432-1.888104 4.407181-3.676263 8.862527-6.168848 14.876041-1.443773-4.440897-2.20359-6.934687-3.057331-9.406802-10.05945-29.156029-24.931879-55.408858-47.218245-77.040167-17.324073-16.812311-38.078763-28.46244-59.84253-38.331634-45.715468-20.74024-93.237158-28.393803-142.935947-18.525813-12.102889 2.399866-12.667634 2.645513-12.352147 14.842325 0.498517 19.786555 0.762226 39.691117 3.133192 59.301867 4.823816 39.824778 17.366218 77.644649 44.624511 107.482226 50.233431 54.976569 112.607079 83.693083 188.498489 78.35028 5.077891-0.361244 10.126882-1.148757 15.907995-1.820672v33.097205c0 7.961825-2.393846 9.612711-9.788517 9.554912-44.466767-0.316691-88.93233-0.155335-133.406322-0.155335h-2.077155a8.609656 8.609656 0 0 0-8.612064 8.613269v0.357631c0 58.501109-0.027695 116.994993 0.014449 175.496102 0.019266 33.030976 21.721621 55.747223 54.746577 55.895333 78.349076 0.350407 156.699356 0.316691 235.041207 0.020471 33.380179-0.126436 55.550947-23.011263 55.578642-56.283069 0.059003-58.501109 0.021675-116.99138 0-175.492489v-0.07827c-0.01445-4.725076-3.885785-8.527774-8.607248-8.527774h-1.636437c-47.380805 0-94.760405-0.120415-142.136393 0.13366-6.931074 0.03492-9.759617-1.416078-9.607895-9.097336 0.486476-24.074525 0.16256-48.169521 0.197481-72.262109 0.007225-2.533527 0.288995-5.074279 0.461188-7.920883 5.828075 0.598461 10.818063 0.980176 15.776744 1.649682 30.576923 4.126614 61.211645 4.710626 91.57423-0.918765 41.293838-7.646338 76.332128-26.593602 101.172492-61.322427 30.846652-43.141001 37.368316-92.263003 33.537922-143.635557zM419.906782 725.466492c0 7.781203-6.302509 14.082508-14.082508 14.082508-7.782407 0-14.082508-6.301305-14.082507-14.082508v-106.326244c0-7.781203 6.300101-14.082508 14.082507-14.082508 7.779998 0 14.082508 6.301305 14.082508 14.082508v106.326244z m0 0" fill="#FFFFFF" p-id="4374"></path></svg>