<?xml version="1.0" standalone="no"?><!DOCTYPE svg PUBLIC "-//W3C//DTD SVG 1.1//EN" "http://www.w3.org/Graphics/SVG/1.1/DTD/svg11.dtd"><svg t="1744716866411" class="icon" viewBox="0 0 1024 1024" version="1.1" xmlns="http://www.w3.org/2000/svg" p-id="22503" width="256" height="256" xmlns:xlink="http://www.w3.org/1999/xlink"><path d="M710.8 586.1c-2.6 0-6.1-0.1-10.7-1.3-4.5-1.2-10.1-4.2-14-8-5.6-5.7-8-10.7-9.4-15.1C659.5 684 554.4 778.3 427.3 778.3c-139.1-0.2-251.8-113-251.8-252.1s112.8-251.9 251.9-251.9c30.4 0 59.6 5.3 86.7 15.3 1.2-1.9 2.5-3.7 3.9-5.1 8.1-8 14.9-9.4 20.1-11.1l16.4-4.5 1.9-4.5-8.6-15.1c-1.5-3.1-3.4-6.4-4.8-11.2-7-2.9-14.1-5.5-21.5-7.8l-14.4-51.5C503.4 166 500 163 491.2 163H363.5c-8.8 0-12.2 2.6-15.9 15.9l-14.3 51.5c-16.9 5.3-33.2 12.2-48.7 20.2L238 224.3c-12-6.9-16.4-6.2-22.6 0l-90.2 90.2c-6.2 6.2-6.4 10.8 0 22.6l26.3 46.6c-8 15.5-14.7 31.6-20.1 48.5l-51.5 14.3c-13.3 3.7-15.9 7.1-15.9 15.9V590c0 8.8 3.1 12.2 15.9 15.9l51.5 14.3c5.3 16.9 12.2 33.2 20.2 48.7l-26.3 46.6c-6.9 12-6.2 16.3 0 22.6l90.2 90.2c6.2 6.2 10.8 6.4 22.6 0l46.6-26.3c15.5 8 31.6 14.7 48.5 20.1l14.3 51.5c3.7 13.3 7.1 15.9 15.9 15.9h127.7c8.8 0 12.2-3.1 15.9-15.9l14.4-51.5c16.9-5.3 33-12.1 48.5-20.1l46.6 26.3c11.8 6.4 16.4 6.2 22.6 0l90.2-90.2c6.2-6.2 6.9-10.6 0-22.6L703 669c8.1-15.6 14.9-31.7 20.2-48.7l51.5-14.3c12.8-3.7 15.9-7.1 15.9-15.9v-4.4c-2 0.2-3.8 0.4-5.3 0.4h-74.5z" p-id="22504" fill="#3a5ccc"></path><path d="M508.7 383.8v-37.6c-24.9-11.4-52.4-17.7-81.3-17.7-109.1 0-197.7 88.4-197.7 197.7 0 109.1 88.4 197.7 197.7 197.7 100.3 0 183.1-74.8 195.9-171.6-8.4-1.9-15.5-7-18.1-10.1l-15-15C589.6 616.7 517 689 427.4 689c-90 0-162.8-72.9-162.8-162.8s72.9-162.8 162.8-162.8c29.6 0 57.3 8.1 81.3 21.9v-1.5z" p-id="22505" fill="#3a5ccc"></path><path d="M951 299.9l-30.1-8.3c-3.1-9.9-7.1-19.3-11.8-28.3l15.3-27.2c3.8-6.9 3.7-9.5 0-13.2l-52.7-52.7c-3.7-3.7-6.2-4-13.2 0l-27.1 15.3c-9-4.8-18.5-8.7-28.4-11.8l-8.3-30.1c-2.1-7.5-4.2-9.3-9.3-9.3h-74.5c-5.1 0-7.1 1.5-9.3 9.3l-8.3 30.1c-9.9 3.1-19.4 7.1-28.4 11.8l-27.2-15.3c-7-4-9.5-3.7-13.2 0l-52.7 52.7c-3.7 3.7-3.8 6.3 0 13.2l15.3 27.2c-4.6 9-8.7 18.4-11.8 28.3l-30.1 8.3c-7.6 2.1-9.2 4.1-9.2 9.3v74.5c0 5.1 1.8 7.1 9.3 9.3l30.1 8.3c3.1 9.9 7.1 19.4 11.8 28.4l-15.3 27.2c-4 7-3.7 9.5 0 13.2l52.7 52.7c3.7 3.7 6.3 3.8 13.2 0l27.2-15.3c9 4.6 18.4 8.7 28.3 11.8l8.3 30.1c2.1 7.8 4.2 9.3 9.3 9.3h74.5c5.1 0 7.1-1.8 9.3-9.3l8.3-30.1c9.9-3.1 19.3-7.1 28.3-11.8l27.2 15.3c6.9 3.8 9.5 3.7 13.2 0l52.7-52.7c3.7-3.7 4-6.2 0-13.2l-15.3-27.2c4.8-9 8.7-18.5 11.8-28.4L951 393c7.5-2.1 9.3-4.2 9.3-9.3v-74.5c0-5.1-1.5-7.1-9.3-9.3zM748 473.2c-69.9 0.1-126.8-56.7-126.8-126.8 0-70 56.8-126.8 126.8-126.8 70.1 0 126.8 56.8 126.8 126.8S818 473.2 748 473.2zM362.7 526.2c-0.1 35.7 29 64.7 64.7 64.7s64.7-29 64.7-64.7-29-64.7-64.7-64.7-64.7 29-64.7 64.7z" p-id="22506" fill="#3a5ccc"></path><path d="M748.1 254.3c-50.7 0-92.1 41.4-92.1 92.1 0.1 50.7 41.4 92.1 92.1 92.1 50.8 0 92.1-41.4 92.1-92.1s-41.4-92.1-92.1-92.1z" p-id="22507" fill="#3a5ccc"></path></svg>