<?xml version="1.0" standalone="no"?><!DOCTYPE svg PUBLIC "-//W3C//DTD SVG 1.1//EN" "http://www.w3.org/Graphics/SVG/1.1/DTD/svg11.dtd"><svg t="1744716447403" class="icon" viewBox="0 0 1024 1024" version="1.1" xmlns="http://www.w3.org/2000/svg" p-id="21400" width="256" height="256" xmlns:xlink="http://www.w3.org/1999/xlink"><path d="M377.263158 0a161.711158 161.711158 0 0 1 147.402105 95.124211l7.760842-7.733895a161.684211 161.684211 0 0 1 228.648421 0l148.614737 148.587789a161.684211 161.684211 0 0 1 0 228.675369L862.315789 512a161.684211 161.684211 0 0 1 161.684211 161.684211v188.631578a161.684211 161.684211 0 0 1-161.684211 161.684211H161.684211a161.684211 161.684211 0 0 1-161.576422-155.621053L0 862.315789V161.684211A161.684211 161.684211 0 0 1 155.621053 0.107789L161.684211 0h215.578947z m485.052631 619.789474h-107.789473l-215.578948 215.552V862.315789a161.414737 161.414737 0 0 1-9.216 53.894737h332.611369a53.894737 53.894737 0 0 0 53.894737-53.894737v-188.631578a53.894737 53.894737 0 0 0-53.894737-53.894737zM377.263158 107.789474H161.684211a53.894737 53.894737 0 0 0-53.894737 53.894737v700.631578a53.894737 53.894737 0 0 0 53.894737 53.894737h215.578947a53.894737 53.894737 0 0 0 53.894737-53.894737V161.684211a53.894737 53.894737 0 0 0-53.894737-53.894737z m-107.789474 592.842105a53.894737 53.894737 0 1 1 0 107.789474 53.894737 53.894737 0 0 1 0-107.789474zM684.867368 163.597474a53.894737 53.894737 0 0 0-76.234105 0L538.947368 233.256421v449.64379l294.534737-294.480843a53.894737 53.894737 0 0 0 3.125895-72.757894l-3.152842-3.449263z" fill="#00d26a" p-id="21401"></path></svg>