<?xml version="1.0" standalone="no"?><!DOCTYPE svg PUBLIC "-//W3C//DTD SVG 1.1//EN" "http://www.w3.org/Graphics/SVG/1.1/DTD/svg11.dtd"><svg t="1744715131818" class="icon" viewBox="0 0 1024 1024" version="1.1" xmlns="http://www.w3.org/2000/svg" p-id="10147" width="256" height="256" xmlns:xlink="http://www.w3.org/1999/xlink"><path d="M959.7 592.9c-15.9-24.3-56.1-14.7-75.8-2.9-30.3 18.2-121.6 96.3-154.4 100.4-32.4 4.1-120.3-2.3-182.8-8.2-70.7-6.6-43.1-35.3-32-38.3s146.6-10.4 191.9-15.6c40.7-4.7 34.8-44.8-11.1-46.5-0.7 0-1.4-0.1-2.2-0.1-0.4-3.9-2-7.3-5.2-9.2-13.1-8-16-15.4-29.5-22.2-13.9-7.2-28-13.7-42.3-19.7-6-2.2-10.7-1.6-13.9 1.5-3.3 3-6.5 6.8-9.7 11.4-1.2 1.7-2.6 3.4-4 5.1v-9c1.6-4.1 2.8-8.2 3.6-12.4 0.9-4.9 2.1-9.8 3.4-14.5 1.1-3.7 3-8.8 6.4-10.1 1.8-0.7 5.2-1.1 15.9 1.5 9.5 2.3 12.1 2.7 12.9 2.8 13 0.8 26.2-1.1 38.9-5.7 19.3-7 37.2-19.9 53-38.4 16.3-18.8 28.6-39.3 36.7-61.1 8-21.5 11.2-45.5 9.6-71.3-0.7-11-2.2-22-4.6-32.6v-0.1c-0.9-4-2.5-9.2-4.6-15.2l-0.2-0.7c-2.3-6.4-4.8-12.6-7.6-18.7-2.9-6.4-6.2-11.6-9.8-15.4-1.3-1.3-6-2.9-10.9-1.1-3.4 1.2-6 3.7-7.7 7.5v0.1l-2.9 6.1-2.8 6.3-0.1 0.1c-2.8 6.1-7.7 11.7-14.3 16.6-6.3 4.7-13.6 8.9-21.6 12.4-7.9 3.4-15.8 6.6-23.7 9.7-7.9 3-15.7 6.4-23.4 10.1-7.5 3.6-13.5 7.2-17.7 10.8-8.4 7.2-16.1 15.7-23 25.2-6.6 9.3-12.4 19.6-16.9 30.7-4.5 11-7.4 23-8.4 35.3-1.1 12.6-0.3 25.3 2.5 37.4 1.1 4.8 2.5 9.4 4.1 13.8 42.1-58.6 75.6-59.4 77.2-59.4h15.5l-14.5 9.3c-0.3 0.1-30.9 12.7-62.4 72.9-3 7.7-6.4 15.9-10.1 24.3-1.7 4-3.4 8-5.2 12.3-8.8 8.1-21.1 8.3-30.1 0.4l-0.4-0.4c-4.9-12.1-11.1-24.3-9.8-42.4 1.3-18.6 5-26-1.3-62.7-13.2-29.3-46.8-68.8-47.1-69.2l-14.9-21.7 19.3 14c1.5 1.1 37.1 27 52.2 48.6 1.6 2.3 3.5 5.1 6.1 9 3 4.6 5.9 9.5 8.7 14.3 4-17.8 5.3-36.4 3.6-54.8-1.7-18.6-5.8-36-12.4-51.9-6.7-16.3-15.2-31.6-24.9-45.3-10.1-14-21.4-26.6-33.8-37.2-6.1-5.2-14.9-10.6-26-15.9-11.4-5.4-22.8-10.4-34.5-14.9s-23.4-9.3-35-14.3c-11.8-5.1-22.5-11.2-31.8-18.1-9.8-7.3-16.9-15.5-21-24.5l-0.1-0.1-4.1-9.3-4.2-9v-0.1c-2.4-5.5-6.2-9.3-11.2-11.1-7.1-2.6-14.1-0.3-16 1.7-5.4 5.5-10.2 13.1-14.5 22.6-4 9-7.8 18.1-11.1 27.5l-0.3 1c-3.1 8.9-5.4 16.4-6.7 22.4v0.1c-3.6 15.7-5.8 31.8-6.7 48-2.3 37.9 2.5 73.2 14.2 104.8 11.8 31.9 30 62.2 54 89.8 23.3 27.2 49.5 46.2 78 56.5 18.6 6.7 37.9 9.6 57.2 8.4 1.1-0.1 4.9-0.7 19-4 15.7-3.8 20.7-3.2 23.4-2.2 5.1 1.9 7.8 9.4 9.5 14.8 2.1 7 3.7 14.1 5.1 21.3 1 5.5 2.7 11 4.7 16.1v3.2c-0.3-0.4-0.7-0.8-1-1.3-2.8-4.5-6.1-8.5-9.7-11.9-3.5-3-8.2-3.3-14.2-0.5-14.1 5.9-28.1 12.3-41.9 19.2-14.1 7-18.4 13.9-29.2 20.6-26.6-0.5-49.5-0.4-65.4 0.7-70 4.7-172.1 98.2-172.1 98.2l3.8 14.8 149 132.3 19.9-1.6s36.5-21 66.9-27.3c30.4-6.3 198.3 12.1 256.2 3.7 58-8.4 207.3-133.4 240.1-160.7 16.1-12.7 27.5-31.7 24.2-36.8zM314.1 822.8c-12.1-11-130.7-115.9-144.4-128.3-13.7-12.4-29.1-9.5-38.5-2-9.4 7.4-48.4 37.8-59.6 45.5-17.3 11.9-1.9 31.7 7.9 41s115.4 107.2 131.1 122.6c15.6 15.4 31.7 13.8 43.5 3.9s39-33.3 56.4-45.5c17.3-12.2 15.7-26.1 3.6-37.2z" fill="#00d26a" p-id="10148"></path></svg>