<?xml version="1.0" standalone="no"?><!DOCTYPE svg PUBLIC "-//W3C//DTD SVG 1.1//EN" "http://www.w3.org/Graphics/SVG/1.1/DTD/svg11.dtd"><svg t="1735370256179" class="icon" viewBox="0 0 1044 1024" version="1.1" xmlns="http://www.w3.org/2000/svg" p-id="10758" width="261" height="256" xmlns:xlink="http://www.w3.org/1999/xlink"><path d="M295.76418 453.154595m157.444036 0l433.056289 0q157.444036 0 157.444036 157.444036l0 255.957333q0 157.444036-157.444036 157.444036l-433.056289 0q-157.444036 0-157.444036-157.444036l0-255.957333q0-157.444036 157.444036-157.444036Z" fill="#0086FF" p-id="10759"></path><path d="M157.985441 374.424793h-39.365765c-65.221189 0-118.092108 52.875532-118.092108 118.09845v157.474595c0 65.222919 52.870919 118.09845 118.092108 118.09845h39.365765c65.220613 0 118.091532-52.875532 118.091532-118.09845V492.523243c0-65.222919-52.870919-118.09845-118.091532-118.09845z m-39.365765 78.722306h39.365765c21.742703 0 39.369802 17.628252 39.369802 39.376144v157.474595c0 21.747892-17.627099 39.376144-39.369802 39.376144h-39.365765c-21.742703 0-39.369802-17.628252-39.369802-39.376144V492.523243c0-21.747892 17.627099-39.376144 39.369802-39.376144z m373.97218-236.196901h-39.365766c-65.220613 0-118.091532 52.875532-118.091531 118.098451v314.949189c0 65.222919 52.870919 118.09845 118.091531 118.09845h39.365766c65.221189 0 118.092108-52.875532 118.092108-118.09845V335.048649c0-65.222919-52.870919-118.09845-118.092108-118.098451z m-39.365766 78.722307h39.365766c21.742703 0 39.369802 17.628252 39.369802 39.376144v314.949189c0 21.747892-17.627099 39.376144-39.369802 39.376144h-39.365766c-21.742703 0-39.369802-17.628252-39.369802-39.376144V335.048649c0-21.747892 17.627099-39.376144 39.369802-39.376144zM827.19827 0.422631h-39.365189c-65.221189 0-118.092108 52.875532-118.092108 118.09845v531.476757c0 65.222919 52.870919 118.09845 118.092108 118.09845h39.365189c65.221189 0 118.092108-52.875532 118.092108-118.09845V118.521081c0-65.222919-52.870919-118.09845-118.092108-118.09845z m-39.365189 78.722306h39.365189c21.742703 0 39.370378 17.628252 39.370379 39.376144v531.476757c0 21.747892-17.627676 39.376144-39.370379 39.376144h-39.365189c-21.742703 0-39.370378-17.628252-39.370378-39.376144V118.521081c0-21.747892 17.627676-39.376144 39.370378-39.376144zM896.089369 807.479928H49.729153c-26.901333 0-48.760505 21.58991-49.201585 48.391495v0.81355c0 27.173477 22.028108 49.201586 49.201585 49.201586h846.360216c26.901333 0 48.759928-21.58991 49.201009-48.391496v-0.813549c0-27.173477-22.028108-49.201586-49.201009-49.201586z" fill="#2D2F33" p-id="10760"></path></svg>