<?xml version="1.0" standalone="no"?><!DOCTYPE svg PUBLIC "-//W3C//DTD SVG 1.1//EN" "http://www.w3.org/Graphics/SVG/1.1/DTD/svg11.dtd"><svg t="1744715015682" class="icon" viewBox="0 0 1024 1024" version="1.1" xmlns="http://www.w3.org/2000/svg" p-id="8741" xmlns:xlink="http://www.w3.org/1999/xlink" width="256" height="256"><path d="M512 0C229.22999 0 0 229.22999 0 512c0 282.767602 229.22999 511.997592 512 511.997592s512-229.22999 512-511.997592C1024.001204 229.22999 794.77001 0 512 0z m228.19081 394.713603c-24.840363 34.730029-59.878654 53.678497-101.172491 61.323632-30.362585 5.630595-60.997307 5.044175-91.574231 0.918764-4.957476-0.669506-9.951077-1.051221-15.776743-1.649682-0.174601 2.847809-0.453964 5.388561-0.461189 7.922088-0.03492 24.091384 0.286587 48.187584-0.195072 72.260905-0.155335 7.681258 2.674412 9.132256 9.605487 9.09854 47.375988-0.255279 94.755589-0.134865 142.133985-0.134865h1.636436c4.725076 0 8.596411 3.802699 8.609657 8.527775v0.079473c0.021675 58.499905 0.059003 116.990176 0 175.491285-0.027695 33.270602-22.199667 56.156633-55.578643 56.283069-78.343055 0.29622-156.692131 0.329936-235.041207-0.021674-33.024955-0.14811-54.724902-22.863153-54.746576-55.894129-0.042145-58.501109-0.01445-116.996197-0.01445-175.496102v-0.357632a8.609656 8.609656 0 0 1 8.612065-8.613269h2.077155c44.473992 0 88.939555-0.16256 133.406322 0.155335 7.394671 0.059003 9.788517-1.591883 9.788517-9.554912v-33.096c-5.781113 0.67071-10.830105 1.458223-15.910404 1.818263-75.889002 5.344008-138.260242-23.372507-188.496081-78.347872-27.258292-29.837576-39.800695-67.658652-44.62451-107.482226-2.370967-19.61075-2.634675-39.516516-3.133193-59.303071-0.315487-12.196812 0.249259-12.442458 12.352148-14.842325 49.698789-9.866786 97.222887-2.213224 142.935947 18.525813 21.763766 9.869195 42.522069 21.519324 59.840121 38.332839 22.288774 21.63131 37.161203 47.884138 47.220653 77.038963 0.853741 2.473319 1.613558 4.965905 3.057331 9.408006 2.492586-6.01231 4.280745-10.46886 6.168849-14.876041 11.78981-27.547287 25.202812-54.0566 44.496871-77.406228 18.236817-22.068415 41.402211-35.533195 68.448573-43.580515 43.290315-12.875952 87.142967-15.340842 131.722924-8.82279 5.803992 0.846516 7.782407 3.768982 8.149672 8.661434 3.832802 51.368942-2.688862 100.490944-33.537923 143.633149z" fill="#00d26a" p-id="8742"></path><path d="M405.82307 605.05774c-7.782407 0-14.082508 6.301305-14.082507 14.081304v106.327448c0 7.781203 6.300101 14.082508 14.082507 14.082508 7.779998 0 14.082508-6.301305 14.082508-14.082508v-106.327448c0.001204-7.779998-6.302509-14.081303-14.082508-14.081304z" fill="#00d26a" p-id="8743"></path></svg>