<?xml version="1.0" standalone="no"?><!DOCTYPE svg PUBLIC "-//W3C//DTD SVG 1.1//EN" "http://www.w3.org/Graphics/SVG/1.1/DTD/svg11.dtd"><svg t="1744714802282" class="icon" viewBox="0 0 1024 1024" version="1.1" xmlns="http://www.w3.org/2000/svg" p-id="5688" width="256" height="256" xmlns:xlink="http://www.w3.org/1999/xlink"><path d="M400.296 692.283c-5.656-2.121-80.597-39.592-112.412-64.337-120.188-88.373-169.678-193.715-169.678-193.715s24.038 62.922 48.076 96.858c24.037 33.935 61.508 74.94 104.634 112.411 43.127 37.47 96.858 64.336 96.858 64.336s-82.718 12.726-144.933-16.26C157.09 660.468 96.29 580.578 77.908 506.344 54.578 411.607 53.87 314.043 53.87 314.043s-0.707-2.121 7.777 0c77.062 19.088 190.18 61.508 257.345 112.411 67.87 51.61 79.183 132.914 80.597 168.97 1.413 36.764 0.707 96.859 0.707 96.859z m569.834-488.53s-0.707 152.002-37.47 300.47c-28.987 115.24-123.017 239.67-225.53 287.745-96.858 45.248-225.53 24.745-225.53 24.745S564.316 775 631.48 716.32 756.62 594.01 794.09 540.987c37.47-52.318 74.941-149.882 74.941-149.882s-76.355 164.021-263 300.47c-49.49 38.178-166.85 96.858-175.334 100.393 0 0-1.414-93.323 0-149.882s19.796-183.11 125.137-263c105.342-79.89 281.383-145.64 400.157-175.334 15.554-2.828 14.14 0 14.14 0z" fill="#1bc5be" p-id="5689"></path></svg>