<?xml version="1.0" standalone="no"?><!DOCTYPE svg PUBLIC "-//W3C//DTD SVG 1.1//EN" "http://www.w3.org/Graphics/SVG/1.1/DTD/svg11.dtd"><svg t="1744717738119" class="icon" viewBox="0 0 1024 1024" version="1.1" xmlns="http://www.w3.org/2000/svg" p-id="27258" width="256" height="256" xmlns:xlink="http://www.w3.org/1999/xlink"><path d="M512 0C229.2 0 0 229.2 0 512s229.2 512 512 512 512-229.2 512-512S794.8 0 512 0z m333.8 845.8c-43.4 43.4-93.8 77.4-150 101.2-58.3 24.5-120.1 37-183.8 37s-125.5-12.5-183.7-37.1c-56.2-23.8-106.7-57.8-150-101.2-43.4-43.4-77.4-93.8-101.2-150C52.5 637.5 40 575.7 40 512s12.5-125.5 37.1-183.7c23.8-56.2 57.8-106.7 101.2-150 43.4-43.4 93.8-77.4 150-101.2C386.5 52.5 448.3 40 512 40s125.5 12.5 183.7 37.1c56.2 23.8 106.7 57.8 150 101.2 43.4 43.4 77.4 93.8 101.2 150 24.6 58.2 37.1 120 37.1 183.7s-12.5 125.5-37.1 183.7c-23.7 56.2-57.8 106.7-101.1 150.1z" fill="#bd34fe" p-id="27259"></path><path d="M892.8 565c-19.2-28.4-46.2-51-78.1-64.7 28-21.2 46-54.9 46-92.7 0-64.3-52.1-116.4-116.4-116.4-64.2 0-116.4 52-116.4 116.4 0 38.1 18.2 71.8 46.4 93-43.4 18.9-78.4 54.7-96.1 98.8-2-1-4.1-1.9-6.1-2.8 16.2-15.7 26.3-37.8 26.3-62.2 0-47.8-38.8-86.5-86.5-86.5-47.8 0-86.5 38.7-86.5 86.5 0 24.3 10 46.2 26.1 62-2.8 1.2-5.5 2.4-8.1 3.7-17.5-44.5-52.5-80.6-96.3-99.5 28-21.2 46.1-54.9 46.1-92.8 0-64.3-52.1-116.4-116.4-116.4-64.2 0-116.4 52-116.4 116.4 0 37.9 18 71.5 46 92.7-27.8 11.9-52 30.7-70.4 54.2-4.1 5.2-5.2 12.3-2.8 18.4 0.1 0.1 0.1 0.3 0.2 0.4 5.3 13.5 23.4 16.1 32.4 4.7 24.6-31.6 62.5-52.4 105.3-54 0.7 0 1.4 0 2.1-0.1 1.2 0 2.4 0.1 3.5 0.1 1.3 0 2.6 0 3.9-0.1 61.9 1.4 112.8 41.5 130.4 97.2-33.5 28.5-54.8 71-54.8 118.4 0 17.8 3 34.8 8.5 50.8 1.8 5 5.7 9 10.5 10.9l0.9 0.3c1.1 0.4 2.2 0.7 3.3 0.9 5.7 1.2 11.7-0.4 16.2-4.3a179.2 179.2 0 0 0 59.1-118.5c1.2-14.9 0.6-29.4-1.7-43.4 16.4-9.4 35.3-15 55.3-15.5 1.1 0 2.2 0.1 3.3 0.1 1.1 0 2.2 0 3.3-0.1 19.1 0.5 37.1 5.6 52.9 14.1-1.6 9.1-2.4 18.4-2.5 27.8-0.6 55.4 24 105 63 138.1 4.8 4.1 11.3 5.4 17.3 3.7 0.1 0 0.3-0.1 0.4-0.1 8.2-2.4 13-9.4 13.5-16.8 4.9-15.1 7.5-31.2 7.5-48 0-47.7-22.2-90.8-56.6-119.4 18.3-54.9 69.7-94.8 129.9-96.3 1.2 0 2.4 0.1 3.7 0.1 1.2 0 2.5 0 3.7-0.1 47.2 1.2 88.5 25.6 113.2 62.3 8.4 12.4 27.1 10.7 33-3.1 0.1-0.1 0.1-0.3 0.2-0.4 2.8-5.9 2.1-12.6-1.3-17.8z m-612.2-79c-2.6-0.1-5.1-0.1-7.7 0-41.6-2.1-74.6-36.4-74.6-78.5 0-43.4 35.2-78.6 78.6-78.6 43.4 0 78.6 35.2 78.6 78.6-0.2 42.2-33.3 76.5-74.9 78.5z m112.6 258.1c-0.1-2-0.1-4-0.1-6 0.3-26.4 9.4-50.9 24.5-70.5 0 1.9-0.1 3.8-0.2 5.8-1.5 26.1-10.2 50.3-24.2 70.7z m118.7-259.3c27.4 0 49.6 22.2 49.6 49.6 0 27.4-22.3 49.6-49.6 49.6-27.4 0-49.6-22.2-49.6-49.6 0-27.4 22.2-49.6 49.6-49.6z m118.7 254.7c0 2.6-0.1 5.2-0.2 7.8-16.9-23.3-26.9-52.1-26.8-83.2 16.8 20.5 27 46.7 27 75.4z m116.8-253.6h-6.3c-41.9-1.7-75.3-36.2-75.3-78.5 0-43.4 35.2-78.6 78.5-78.6 43.4 0 78.6 35.2 78.6 78.6 0 42.4-33.5 76.9-75.5 78.5z" fill="#bd34fe" p-id="27260"></path></svg>